<svg width="162" height="187" fill="none" xmlns="http://www.w3.org/2000/svg"><path d="M4.619 184.562a.79.79 0 0 0-.262-.609c-.174-.174-.348-.261-.61-.348l-.784-.261c-.262-.088-.61-.175-.872-.262-.261-.087-.61-.261-.784-.435a1.613 1.613 0 0 1-.61-.696c-.174-.262-.261-.61-.261-1.045 0-.609.261-1.132.697-1.567.436-.435 1.133-.61 1.917-.61.261 0 .61 0 .871.088.262.087.523.174.698.261.174.087.348.174.435.261.175.087.262.174.262.261l.087.087-.784.784-.088-.087-.174-.175c-.087-.087-.174-.174-.348-.174-.088-.087-.262-.087-.436-.174s-.349-.087-.61-.087c-.436 0-.697.087-.959.261-.261.174-.348.436-.348.697a.79.79 0 0 0 .261.609c.174.174.349.261.61.348l.784.262c.262.087.61.174.872.261.261.087.61.261.784.435.262.174.436.348.61.697.174.261.262.609.262 1.044 0 .697-.262 1.306-.785 1.741-.523.436-1.22.697-2.091.697-.349 0-.697 0-1.046-.087-.349-.087-.61-.174-.784-.348a2.713 2.713 0 0 1-.523-.349c-.174-.087-.261-.261-.349-.261l-.087-.174.785-.783s0 .087.087.087l.261.261c.087.087.262.174.436.261.174.087.348.174.61.174.261.087.523.087.784.087.523 0 .872-.087 1.133-.348.174-.174.349-.435.349-.784ZM8.714 178.904h6.013v1.131h-2.353v6.791h-1.22v-6.791H8.801v-1.131h-.087ZM20.043 185.172c.436.435.871.609 1.481.609.523 0 1.046-.174 1.482-.609.436-.435.61-.958.61-1.48v-4.788h1.22v4.788c0 .87-.349 1.654-.959 2.35-.61.61-1.481.958-2.353.958a3.367 3.367 0 0 1-2.353-.958c-.61-.609-.958-1.393-.958-2.35v-4.788h1.22v4.788c0 .522.174 1.045.61 1.48ZM29.28 178.904h2.789c1.133 0 2.091.348 2.875 1.131.785.784 1.22 1.742 1.22 2.786 0 1.045-.435 2.003-1.22 2.786-.784.784-1.742 1.132-2.875 1.132H29.28v-7.835Zm2.789 1.131H30.5v5.659h1.569c.784 0 1.394-.261 2.004-.783.523-.523.784-1.219.784-2.003 0-.783-.261-1.48-.784-2.002-.61-.609-1.22-.871-2.004-.871ZM40.173 178.904l2.179 3.83 2.178-3.83h1.395l-2.876 5.136v2.873h-1.22v-2.96l-2.876-5.136h1.22v.087ZM48.975 185.694c.174.174.261.348.261.522 0 .175-.087.349-.261.523-.175.174-.349.261-.523.261-.174 0-.349-.087-.523-.261-.174-.174-.262-.348-.262-.523 0-.174.088-.348.262-.522.174-.174.349-.261.523-.261.174 0 .436.087.523.261ZM56.817 178.904h6.013v1.131h-2.352v6.791h-1.22v-6.791h-2.353v-1.131h-.088ZM66.403 186.826v-7.922h3.312c.697 0 1.307.261 1.83.696.523.435.697 1.045.697 1.741 0 .349-.087.61-.174.871a1.895 1.895 0 0 1-.436.696c-.174.174-.349.261-.436.436-.174.087-.261.174-.436.261l-.174.087 1.83 3.134h-1.394l-1.656-3.047h-1.83v3.047h-1.133Zm4.27-4.614c.262-.261.349-.522.349-.958 0-.348-.087-.696-.349-.957-.261-.262-.523-.349-.958-.349h-2.092v2.612h2.092c.435.087.697-.087.958-.348ZM75.728 186.826l3.311-7.922h1.22l3.312 7.922h-1.307l-.872-2.089h-3.486l-.871 2.089h-1.307Zm3.921-6.529-1.307 3.308h2.614l-1.307-3.308ZM88.538 186.826l-3.137-7.922h1.307l2.44 6.355 2.44-6.355h1.307l-3.137 7.922h-1.22ZM97.95 185.694h4.444v1.132h-5.752v-7.922h5.577v1.131h-4.357v2.09h3.486v1.132h-3.486v2.437h.087ZM111.457 186.826h-5.055v-7.922h1.22v6.79h3.835v1.132ZM115.901 185.694c.174.174.261.348.261.522 0 .175-.087.349-.261.523-.174.174-.349.261-.523.261-.174 0-.348-.087-.523-.261-.174-.174-.261-.348-.261-.523 0-.174.087-.348.261-.522.175-.174.349-.261.523-.261.174 0 .349.087.523.261ZM125.835 185.694h4.445v1.132h-5.752v-7.922h5.577v1.131h-4.357v2.09h3.486v1.132h-3.486v2.437h.087ZM133.33 186.826l3.311-7.922h1.22l3.312 7.922h-1.308l-.871-2.089h-3.486l-.871 2.089h-1.307Zm3.921-6.529-1.307 3.308h2.614l-1.307-3.308ZM144.833 186.826v-7.922h3.311c.697 0 1.307.261 1.83.696.523.435.697 1.045.697 1.741 0 .349-.087.61-.174.871a1.896 1.896 0 0 1-.436.696c-.174.174-.348.261-.436.436-.174.087-.261.174-.435.261l-.175.087 1.83 3.134h-1.394l-1.656-3.047h-1.83v3.047h-1.132Zm4.27-4.614c.261-.261.348-.522.348-.958 0-.348-.087-.696-.348-.957-.262-.262-.523-.349-.959-.349h-2.091v2.612h2.091c.349.087.697-.087.959-.348ZM160.518 178.904h1.22v7.922h-1.045l-4.445-5.746v5.746h-1.22v-7.922h1.046l4.444 5.745v-5.745ZM15.773 167.934C5.316 167.934 0 162.885 0 152.699v-22.374h6.449v20.894c0 3.744.697 6.53 2.178 8.184 1.482 1.741 3.834 2.524 7.059 2.524 3.224 0 5.577-.87 7.058-2.524 1.482-1.741 2.179-4.44 2.179-8.184v-20.894h6.449v22.374c.174 10.186-5.055 15.235-15.599 15.235ZM68.757 167.325l-3.486-7.748H48.365l-3.486 7.748h-6.971l16.818-37.174h4.096l16.906 37.174h-6.971Zm-11.94-28.555-3.05 7.748-3.137 7.661h12.375l-3.224-7.661-2.963-7.748ZM119.387 130.151h3.398v37.174h-6.361v-23.071l-11.59 16.541h-2.527l-11.59-16.366v22.896h-6.362v-37.174h3.398l15.861 22.374 15.773-22.374ZM135.421 167.325v-36.912H162v5.746h-20.217v12.188h17.341v5.745h-17.341v13.233h-6.362Z" fill="#C99D78"/><path fill-rule="evenodd" clip-rule="evenodd" d="M94.464 27.684v-.435c.261-5.05-.61-10.012-2.79-14.626-2.265-4.7-5.663-8.618-9.76-11.752L80.783 0l-1.046.87c-4.095 3.222-7.494 7.052-9.76 11.753-2.178 4.614-3.05 9.577-2.788 14.626v.435l.174.349c1.22 2.35 2.353 4.7 3.224 7.138l.262.697-.698.087c-7.93 1.306-15.773 3.656-23.093 7.052-10.195 4.614-19.781 11.23-27.101 19.762l-2.179 2.524L30.762 66.6c2.701.261 5.315.174 7.93-.522 2.265-.522 4.357-1.393 6.361-2.612-.436-1.132-.784-2.263-1.22-3.395-1.83 1.132-3.834 2.09-6.013 2.612-2.266.522-4.531.609-6.797.435l-6.187-.61.871-.87c5.926-5.92 12.985-10.708 20.479-14.365l.697-.348.174.784c1.918 9.75 5.316 19.065 10.545 27.51a60.838 60.838 0 0 0 4.619 6.703l.435.523-.61.348c-4.096 2.35-7.756 5.397-10.718 8.967a38.762 38.762 0 0 0-7.67 15.235l-.784 3.047 12.375-3.918c1.83-.609 3.573-1.305 5.229-2.35 1.655-.958 3.137-2.177 4.444-3.57l.697-.696.087-.087-2.614-2.35c-.261.174-.436.435-.697.609a21.861 21.861 0 0 1-3.835 3.047c-1.394.87-2.875 1.48-4.444 2.002l-6.361 2.002.435-1.131a32.766 32.766 0 0 1 5.665-9.664c2.875-3.482 6.448-6.442 10.457-8.531l.436-.261.261.348c4.357 5.049 9.324 9.576 14.64 13.494l1.046.783 1.046-.783c5.403-4.005 10.37-8.532 14.727-13.581l.261-.349.436.174c4.009 2.177 7.582 5.05 10.457 8.62 2.353 2.872 4.27 6.18 5.665 9.663l.435 1.131-6.361-2.002c-1.569-.522-3.05-1.132-4.445-2.002a21.87 21.87 0 0 1-3.834-3.047c-.261-.261-.523-.436-.697-.697l-2.614 2.35c.087 0 .087.088.174.088.261.174.436.435.697.696 1.395 1.393 2.876 2.525 4.444 3.57a28.253 28.253 0 0 0 5.229 2.35l12.374 3.918-.697-3.047a38.758 38.758 0 0 0-7.668-15.235c-2.963-3.657-6.623-6.704-10.806-9.054l-.61-.349.436-.522c1.655-2.176 3.137-4.353 4.618-6.703 5.142-8.445 8.627-17.76 10.545-27.51l.174-.784.697.348c7.494 3.657 14.553 8.445 20.392 14.365l.871.87-6.361.61c-2.266.26-4.532.087-6.798-.436-2.178-.522-3.921-1.306-5.751-2.437-.349 1.132-.784 2.263-1.22 3.395 1.917 1.132 4.009 1.915 6.187 2.438 2.614.61 5.229.783 7.93.522l13.159-1.306-2.179-2.524c-7.32-8.532-16.906-15.149-27.101-19.763-7.32-3.308-15.163-5.745-23.18-7.051l-.698-.087.262-.697c.871-2.438 2.004-4.875 3.224-7.139l.349-.087Zm-20.13 7.313c-.96-2.786-2.092-5.484-3.486-8.096l-.088-.087v-.174c-.087-4.353.61-8.532 2.44-12.45 1.743-3.656 4.27-6.703 7.233-9.315l.349-.348.349.348c3.05 2.612 5.577 5.659 7.233 9.315 1.83 3.918 2.614 8.184 2.44 12.45v.174l-.088.087c-1.394 2.612-2.527 5.31-3.485 8.096l-.175.435-.435-.087c-1.917-.174-3.922-.348-5.839-.348h-.087c-2.004 0-4.009.174-5.926.348l-.436.087v-.435ZM54.115 59.81c-1.656-4.527-2.876-9.228-3.747-13.93l-.087-.435.435-.174c1.656-.696 3.312-1.393 5.055-2.002l.436-.174.261.435c2.266 4.092 5.49 7.66 9.411 10.186a29.16 29.16 0 0 0 4.62 2.437l.522.174-.174.523c-.61 1.48-1.308 2.873-2.179 4.091a21.837 21.837 0 0 1-3.05 3.831l-.349.348-.435-.261c-3.05-2.264-6.536-3.918-10.283-4.788l-.262-.087-.174-.174Zm3.05 4.875c3.747 1.48 7.146 4.005 9.76 7.139 3.573 4.266 5.49 9.576 5.577 15.06v1.48l-1.045-1.044a73.222 73.222 0 0 1-10.893-13.93c-1.569-2.524-2.963-5.223-4.183-7.922l-.61-1.305 1.394.522Zm28.322 27.162c-1.394 1.219-2.789 2.35-4.183 3.482l-.349.261-.348-.26a93.983 93.983 0 0 1-4.532-3.744l-.261-.174v-.349c.087-.348.087-.783.087-1.131.087-.784.087-1.654.087-2.438 0-1.915-.174-3.83-.61-5.659l-.087-.522.523-.087c.436-.087.958-.174 1.394-.261a27.113 27.113 0 0 1 3.747-.261c1.133 0 2.266.087 3.399.26.349.088.697.088 1.046.175l.61.087-.087.61c-.436 1.915-.61 3.83-.61 5.832 0 .87.087 1.741.087 2.612 0 .435.087.87.174 1.306l.087.348-.174-.087Zm20.043-26.553c-1.22 2.786-2.702 5.485-4.27 8.097-3.225 5.223-6.972 10.011-11.242 14.277l-.958.958v-1.393c0-5.746 2.004-11.23 5.751-15.584 2.702-3.22 6.187-5.658 10.109-7.138l1.307-.523-.697 1.306Zm-14.379-8.88c1.83-.696 3.486-1.567 5.142-2.611 3.921-2.525 7.145-6.007 9.411-10.099l.262-.435.435.174c1.569.61 3.225 1.219 4.793 1.828l.436.174-.087.435c-.872 4.702-2.092 9.316-3.747 13.843l-.088.26-.348.088a29.187 29.187 0 0 0-10.719 4.875l-.435.261-.35-.348a24.915 24.915 0 0 1-3.05-3.744c-.783-1.218-1.48-2.611-2.09-4.004l-.262-.523.697-.174Zm-15.511-2.872c.348-1.655.61-3.309.697-4.963.174-3.047-.175-6.094-.785-9.054l-.174-.61.61-.086a44.601 44.601 0 0 1 4.88-.261 42.6 42.6 0 0 1 4.706.26l.697.088-.174.61c-.697 2.96-.959 6.093-.872 9.14.088 1.654.262 3.395.698 5.05l.087.609-.61.087c-1.482.261-2.963.435-4.445.435-1.655 0-3.398-.174-5.054-.522l-.61-.087.349-.697Zm13.768-.958a34.214 34.214 0 0 1-.523-4.179c-.174-2.96.175-5.833.872-8.706l.087-.522.523.087c3.834.61 7.756 1.48 11.503 2.612l.697.174-.349.61c-1.917 3.22-4.618 6.006-7.755 8.096-1.308.87-2.702 1.567-4.183 2.176l-.61.261-.262-.61ZM60.303 41.788c3.66-1.045 7.32-1.916 11.068-2.438l.522-.087.088.522c.61 2.786.958 5.66.784 8.532a31.49 31.49 0 0 1-.523 4.005l-.174.696-.61-.261c-1.308-.522-2.528-1.219-3.66-1.915-3.225-2.09-5.839-4.875-7.843-8.184l-.349-.61.697-.26Zm32.94 26.204c-.435.435-.87.87-1.22 1.393-2.004 2.35-3.572 4.962-4.618 7.835l-.174.436-.436-.088a80.031 80.031 0 0 0-1.743-.26 29.653 29.653 0 0 0-3.921-.262c-1.395 0-2.876.087-4.27.348-.698.087-1.308.261-2.005.349l-.523.087-.174-.436c-1.133-2.785-2.614-5.484-4.531-7.748-.436-.522-.872-1.044-1.395-1.567l-.348-.435.348-.435a33.205 33.205 0 0 0 3.399-4.266 22.817 22.817 0 0 0 2.527-5.05l.174-.435.523.087c2.005.435 4.096.697 6.275.697 1.917 0 3.747-.174 5.577-.523l.436-.087.174.436a26.982 26.982 0 0 0 2.614 4.962c.959 1.48 2.092 2.873 3.312 4.179l.348.435-.348.348Z" fill="#023333"/></svg>