<svg width="162" height="187" viewBox="0 0 162 187" fill="none" xmlns="http://www.w3.org/2000/svg">
<path d="M4.6186 184.562C4.6186 184.301 4.53142 184.127 4.35713 183.953C4.18284 183.779 4.0086 183.692 3.74717 183.605C3.48574 183.518 3.22428 183.431 2.96285 183.344C2.70142 183.256 2.35285 183.169 2.09142 183.082C1.82999 182.995 1.48139 182.821 1.3071 182.647C1.04567 182.473 0.871428 182.299 0.697141 181.951C0.522854 181.689 0.435668 181.341 0.435668 180.906C0.435668 180.297 0.697141 179.774 1.13286 179.339C1.56858 178.904 2.26568 178.729 3.04998 178.729C3.31141 178.729 3.65998 178.729 3.92141 178.817C4.18284 178.904 4.44432 178.991 4.6186 179.078C4.79289 179.165 4.96718 179.252 5.05432 179.339C5.22861 179.426 5.31569 179.513 5.31569 179.6L5.40281 179.687L4.6186 180.471C4.6186 180.471 4.61852 180.471 4.53137 180.384C4.53137 180.384 4.44427 180.297 4.35713 180.209C4.26999 180.122 4.18282 180.035 4.00853 180.035C3.92139 179.948 3.7471 179.948 3.57282 179.861C3.39853 179.774 3.22428 179.774 2.96285 179.774C2.52714 179.774 2.26573 179.861 2.0043 180.035C1.74286 180.209 1.6557 180.471 1.6557 180.732C1.6557 180.993 1.74278 181.167 1.91707 181.341C2.09135 181.515 2.2657 181.602 2.52714 181.689C2.78857 181.777 3.05002 181.864 3.31145 181.951C3.57288 182.038 3.92145 182.125 4.18289 182.212C4.44432 182.299 4.79281 182.473 4.96709 182.647C5.22852 182.821 5.40287 182.995 5.57716 183.344C5.75145 183.605 5.83853 183.953 5.83853 184.388C5.83853 185.085 5.57718 185.694 5.05432 186.129C4.53146 186.565 3.83429 186.826 2.96285 186.826C2.61428 186.826 2.26564 186.826 1.91707 186.739C1.56849 186.652 1.30715 186.565 1.13286 186.391C0.958572 186.304 0.697056 186.129 0.609912 186.042C0.435625 185.955 0.348567 185.781 0.261423 185.781L0.174194 185.607L0.958508 184.824C0.958508 184.824 0.958487 184.911 1.04563 184.911C1.04563 184.911 1.13282 184.998 1.3071 185.172C1.39425 185.259 1.56853 185.346 1.74282 185.433C1.91711 185.52 2.09135 185.607 2.35278 185.607C2.61422 185.694 2.87567 185.694 3.1371 185.694C3.65996 185.694 4.00858 185.607 4.27001 185.346C4.4443 185.172 4.6186 184.911 4.6186 184.562Z" fill="#C99D78"/>
<path d="M8.71423 178.904H14.7272V180.035H12.3742V186.826H11.1543V180.035H8.80136V178.904H8.71423Z" fill="#C99D78"/>
<path d="M20.0429 185.172C20.4786 185.607 20.9143 185.781 21.5243 185.781C22.0471 185.781 22.5701 185.607 23.0058 185.172C23.4415 184.737 23.6158 184.214 23.6158 183.692V178.904H24.8358V183.692C24.8358 184.562 24.4872 185.346 23.8772 186.042C23.2672 186.652 22.3957 187 21.5243 187C20.6528 187 19.7815 186.652 19.1714 186.042C18.5614 185.433 18.2129 184.649 18.2129 183.692V178.904H19.4329V183.692C19.4329 184.214 19.6072 184.737 20.0429 185.172Z" fill="#C99D78"/>
<path d="M29.28 178.904H32.0687C33.2016 178.904 34.1601 179.252 34.9444 180.035C35.7287 180.819 36.1644 181.777 36.1644 182.821C36.1644 183.866 35.7287 184.824 34.9444 185.607C34.1601 186.391 33.2016 186.739 32.0687 186.739H29.28V178.904ZM32.0687 180.035H30.5001V185.694H32.0687C32.853 185.694 33.4629 185.433 34.0729 184.911C34.5958 184.388 34.8572 183.692 34.8572 182.908C34.8572 182.125 34.5958 181.428 34.0729 180.906C33.4629 180.297 32.853 180.035 32.0687 180.035Z" fill="#C99D78"/>
<path d="M40.1732 178.904L42.3517 182.734L44.5303 178.904H45.9246L43.0489 184.04V186.913H41.8289V183.953L38.9531 178.817H40.1732V178.904Z" fill="#C99D78"/>
<path d="M48.9746 185.694C49.1489 185.868 49.2361 186.042 49.2361 186.216C49.2361 186.391 49.1489 186.565 48.9746 186.739C48.8003 186.913 48.6261 187 48.4518 187C48.2775 187 48.1032 186.913 47.929 186.739C47.7547 186.565 47.6675 186.391 47.6675 186.216C47.6675 186.042 47.7547 185.868 47.929 185.694C48.1032 185.52 48.2775 185.433 48.4518 185.433C48.6261 185.433 48.8875 185.52 48.9746 185.694Z" fill="#C99D78"/>
<path d="M56.8174 178.904H62.8303V180.035H60.4775V186.826H59.2574V180.035H56.9046V178.904H56.8174Z" fill="#C99D78"/>
<path d="M66.4033 186.826V178.904H69.7148C70.412 178.904 71.022 179.165 71.5448 179.6C72.0677 180.035 72.242 180.645 72.242 181.341C72.242 181.69 72.1548 181.951 72.0677 182.212C71.9805 182.473 71.8062 182.734 71.6319 182.908C71.4576 183.082 71.2834 183.169 71.1962 183.344C71.0219 183.431 70.9348 183.518 70.7605 183.605L70.5863 183.692L72.4163 186.826H71.022L69.3662 183.779H67.5362V186.826H66.4033V186.826ZM70.6734 182.212C70.9348 181.951 71.022 181.69 71.022 181.254C71.022 180.906 70.9348 180.558 70.6734 180.297C70.4119 180.035 70.1505 179.948 69.7148 179.948H67.6234V182.56H69.7148C70.1505 182.647 70.4119 182.473 70.6734 182.212Z" fill="#C99D78"/>
<path d="M75.7278 186.826L79.0392 178.904H80.2592L83.5707 186.826H82.2636L81.3921 184.737H77.9064L77.0349 186.826H75.7278ZM79.6492 180.297L78.3421 183.605H80.9564L79.6492 180.297Z" fill="#C99D78"/>
<path d="M88.5378 186.826L85.4006 178.904H86.7078L89.1479 185.259L91.5878 178.904H92.895L89.7578 186.826H88.5378Z" fill="#C99D78"/>
<path d="M97.9494 185.694H102.394V186.826H96.6422V178.904H102.219V180.035H97.8622V182.125H101.348V183.257H97.8622V185.694H97.9494Z" fill="#C99D78"/>
<path d="M111.457 186.826H106.402V178.904H107.622V185.694H111.457V186.826V186.826Z" fill="#C99D78"/>
<path d="M115.901 185.694C116.075 185.868 116.162 186.042 116.162 186.216C116.162 186.391 116.075 186.565 115.901 186.739C115.727 186.913 115.552 187 115.378 187C115.204 187 115.03 186.913 114.855 186.739C114.681 186.565 114.594 186.391 114.594 186.216C114.594 186.042 114.681 185.868 114.855 185.694C115.03 185.52 115.204 185.433 115.378 185.433C115.552 185.433 115.727 185.52 115.901 185.694Z" fill="#C99D78"/>
<path d="M125.835 185.694H130.28V186.826H124.528V178.904H130.105V180.035H125.748V182.125H129.234V183.257H125.748V185.694H125.835Z" fill="#C99D78"/>
<path d="M133.33 186.826L136.641 178.904H137.861L141.173 186.826H139.865L138.994 184.737H135.508L134.637 186.826H133.33ZM137.251 180.297L135.944 183.605H138.558L137.251 180.297Z" fill="#C99D78"/>
<path d="M144.833 186.826V178.904H148.144C148.841 178.904 149.451 179.165 149.974 179.6C150.497 180.035 150.671 180.645 150.671 181.341C150.671 181.69 150.584 181.951 150.497 182.212C150.41 182.473 150.235 182.734 150.061 182.908C149.887 183.082 149.713 183.169 149.625 183.344C149.451 183.431 149.364 183.518 149.19 183.605L149.015 183.692L150.845 186.826H149.451L147.795 183.779H145.965V186.826H144.833V186.826ZM149.103 182.212C149.364 181.951 149.451 181.69 149.451 181.254C149.451 180.906 149.364 180.558 149.103 180.297C148.841 180.035 148.58 179.948 148.144 179.948H146.053V182.56H148.144C148.493 182.647 148.841 182.473 149.103 182.212Z" fill="#C99D78"/>
<path d="M160.518 178.904H161.738V186.826H160.693L156.248 181.08V186.826H155.028V178.904H156.074L160.518 184.649V178.904Z" fill="#C99D78"/>
<path d="M15.773 167.934C5.31574 167.934 0 162.885 0 152.699V130.325H6.44865V151.219C6.44865 154.963 7.1458 157.749 8.62724 159.403C10.1087 161.144 12.4615 161.927 15.6858 161.927C18.9102 161.927 21.263 161.057 22.7445 159.403C24.2259 157.662 24.923 154.963 24.923 151.219V130.325H31.3717V152.699C31.546 162.885 26.3173 167.934 15.773 167.934Z" fill="#C99D78"/>
<path d="M68.7565 167.325L65.2707 159.577H48.3648L44.8791 167.325H37.9076L54.7264 130.151H58.8221L75.7279 167.325H68.7565ZM56.8177 138.77L53.7677 146.518L50.6305 154.179H63.005L59.7806 146.518L56.8177 138.77Z" fill="#C99D78"/>
<path d="M119.387 130.151H122.785V167.325H116.424V144.254L104.834 160.795H102.307L90.7164 144.429V167.325H84.355V130.151H87.7535L103.614 152.525L119.387 130.151Z" fill="#C99D78"/>
<path d="M135.421 167.325V130.413H162V136.159H141.783V148.347H159.124V154.092H141.783V167.325H135.421V167.325Z" fill="#C99D78"/>
<path fill-rule="evenodd" clip-rule="evenodd" d="M94.4636 27.6844V27.2491C94.725 22.1997 93.8535 17.2374 91.6749 12.6234C89.4092 7.92225 86.0106 4.00466 81.9149 0.870577L80.782 0L79.7363 0.870577C75.6406 4.09171 72.242 7.92225 69.9763 12.6234C67.7977 17.2374 66.9262 22.1997 67.1876 27.2491V27.6844L67.362 28.0326C68.582 30.3831 69.7148 32.7337 70.5862 35.1713L70.8477 35.8678L70.1505 35.9548C62.2204 37.2607 54.3775 39.6113 47.0575 43.0065C36.8617 47.6206 27.2759 54.237 19.9558 62.7686L17.7772 65.2933L30.7616 66.5992C33.4631 66.8603 36.0774 66.7733 38.6917 66.0768C40.9574 65.5545 43.0488 64.6839 45.0531 63.4651C44.6174 62.3333 44.2689 61.2016 43.8332 60.0698C42.0032 61.2016 39.9988 62.1592 37.8203 62.6816C35.5545 63.2039 33.2887 63.291 31.023 63.1169L24.8358 62.5075L25.7073 61.6369C31.633 55.7169 38.6917 50.9288 46.186 47.2723L46.8832 46.9241L47.0575 47.7076C48.9746 57.4581 52.3732 66.7733 57.6018 75.2179C58.9961 77.5684 60.5647 79.8319 62.2205 81.9213L62.6562 82.4437L62.0461 82.7919C57.9504 85.1424 54.2904 88.1895 51.3275 91.7589C47.6675 96.1988 45.0531 101.422 43.6588 106.994L42.8745 110.041L55.249 106.123C57.079 105.514 58.8219 104.818 60.4776 103.773C62.1333 102.815 63.6147 101.596 64.9219 100.203C65.1833 99.9423 65.3577 99.7682 65.6191 99.507L65.7062 99.4199C64.8348 98.6364 63.9633 97.8529 63.0919 97.0694C62.8305 97.2435 62.6561 97.5047 62.3947 97.6788C61.2618 98.8105 59.9547 99.8552 58.5604 100.726C57.1661 101.596 55.6846 102.206 54.1161 102.728L47.7546 104.73L48.1904 103.599C49.4975 100.116 51.4147 96.8082 53.8547 93.9353C56.7304 90.453 60.3033 87.493 64.3119 85.4036L64.7476 85.1425L65.009 85.4907C69.3662 90.54 74.3334 95.067 79.6492 98.9846L80.6949 99.7681L81.7406 98.9846C87.1436 94.98 92.1107 90.453 96.4678 85.4036L96.7293 85.0554L97.165 85.2295C101.174 87.406 104.747 90.2789 107.622 93.8482C109.975 96.7211 111.892 100.029 113.287 103.512L113.722 104.643L107.361 102.641C105.792 102.119 104.311 101.509 102.916 100.639C101.522 99.7681 100.215 98.7235 99.0821 97.5917C98.8207 97.3305 98.5593 97.1564 98.3851 96.8953C97.5136 97.6788 96.6422 98.4623 95.7707 99.2458C95.8579 99.2458 95.8579 99.3329 95.945 99.3329C96.2064 99.507 96.3808 99.7682 96.6422 100.029C98.0365 101.422 99.5179 102.554 101.086 103.599C102.742 104.556 104.485 105.34 106.315 105.949L118.689 109.867L117.992 106.82C116.598 101.248 113.984 96.0247 110.324 91.5847C107.361 87.9283 103.701 84.8813 99.5179 82.5307L98.9079 82.1825L99.3436 81.6602C100.999 79.4837 102.481 77.3073 103.962 74.9567C109.104 66.5121 112.589 57.1969 114.507 47.4465L114.681 46.6629L115.378 47.0112C122.872 50.6676 129.931 55.4558 135.77 61.3757L136.641 62.2463L130.28 62.8557C128.014 63.1168 125.748 62.9427 123.482 62.4204C121.304 61.898 119.561 61.1145 117.731 59.9828C117.382 61.1145 116.947 62.2463 116.511 63.378C118.428 64.5098 120.52 65.2933 122.698 65.8156C125.312 66.4251 127.927 66.5992 130.628 66.338L143.787 65.0321L141.608 62.5075C134.288 53.9758 124.702 47.3594 114.507 42.7453C107.187 39.4372 99.3437 36.9995 91.3264 35.6937L90.6293 35.6066L90.8907 34.9102C91.7622 32.4725 92.895 30.0349 94.115 27.7714L94.4636 27.6844ZM74.3334 34.9972C73.3749 32.2114 72.242 29.5126 70.8477 26.9008L70.7605 26.8138V26.6397C70.6733 22.2868 71.3705 18.108 73.2005 14.1904C74.9434 10.534 77.4706 7.48697 80.4335 4.87524L80.782 4.527L81.1306 4.87524C84.1806 7.48697 86.7078 10.534 88.3635 14.1904C90.1936 18.108 90.9778 22.3738 90.8035 26.6397V26.8138L90.7164 26.9008C89.3221 29.5126 88.1892 32.2114 87.2306 34.9972L87.0564 35.4325L86.6207 35.3454C84.7035 35.1713 82.6991 34.9972 80.782 34.9972H80.6949C78.6906 34.9972 76.6863 35.1713 74.7692 35.3454L74.3334 35.4325V34.9972ZM54.1161 59.8087C52.4603 55.2817 51.2404 50.5805 50.369 45.8794L50.2817 45.4441L50.7174 45.27C52.3732 44.5736 54.0289 43.8771 55.7718 43.2677L56.2075 43.0936L56.469 43.5289C58.7347 47.6206 61.959 51.1899 65.8804 53.7146C67.3619 54.6723 68.8434 55.4558 70.4991 56.1522L71.0219 56.3263L70.8477 56.8487C70.2377 58.3287 69.5405 59.7216 68.6691 60.9404C67.7977 62.3333 66.7519 63.6392 65.6191 64.771L65.2705 65.1192L64.8348 64.858C61.7847 62.5945 58.299 60.9404 54.5518 60.0698L54.2904 59.9828L54.1161 59.8087ZM57.1661 64.6839C60.9133 66.1639 64.3119 68.6886 66.9262 71.8226C70.4991 76.0885 72.4162 81.399 72.5033 86.8836V88.3636L71.4577 87.3189C67.2748 83.1401 63.6147 78.439 60.5647 73.3897C58.9961 70.865 57.6018 68.1662 56.3818 65.4674L55.7718 64.1615L57.1661 64.6839ZM85.4878 91.8459C84.0935 93.0647 82.6992 94.1965 81.3049 95.3282L80.9563 95.5894L80.6077 95.3282C79.0392 94.1094 77.5578 92.8906 76.0763 91.5847L75.8148 91.4106V91.0624C75.902 90.7141 75.902 90.2789 75.902 89.9306C75.9891 89.1471 75.9891 88.2765 75.9891 87.493C75.9891 85.5778 75.8148 83.6625 75.3791 81.8343L75.292 81.3119L75.8148 81.2249C76.2506 81.1378 76.7734 81.0508 77.2091 80.9637C78.4291 80.7896 79.7363 80.7025 80.9563 80.7025C82.0892 80.7025 83.2221 80.7896 84.355 80.9637C84.7035 81.0508 85.0521 81.0507 85.4006 81.1378L86.0106 81.2249L85.9235 81.8343C85.4878 83.7495 85.3135 85.6648 85.3135 87.6671C85.3135 88.5377 85.4006 89.4083 85.4006 90.2789C85.4006 90.7141 85.4877 91.1494 85.5749 91.5847L85.6621 91.933L85.4878 91.8459ZM105.531 65.2933C104.311 68.0791 102.829 70.7779 101.261 73.3897C98.0364 78.6131 94.2893 83.4013 90.0193 87.6671L89.0606 88.6248V87.2318C89.0606 81.486 91.065 76.0014 94.8122 71.6485C97.5136 68.4274 100.999 65.9898 104.921 64.5098L106.228 63.9874L105.531 65.2933ZM91.1521 56.4134C92.9821 55.7169 94.6379 54.8464 96.2936 53.8017C100.215 51.277 103.439 47.7947 105.705 43.703L105.967 43.2677L106.402 43.4418C107.971 44.0512 109.627 44.6606 111.195 45.27L111.631 45.4441L111.544 45.8794C110.672 50.5805 109.452 55.1946 107.797 59.7216L107.709 59.9828L107.361 60.0698C103.526 60.9404 99.8665 62.5945 96.6422 64.9451L96.2065 65.2062L95.8579 64.858C94.725 63.7263 93.6793 62.4204 92.8078 61.1145C92.0236 59.8957 91.3264 58.5028 90.7164 57.1099L90.455 56.5875L91.1521 56.4134ZM75.6406 53.5405C75.9892 51.8864 76.2505 50.2323 76.3377 48.5782C76.512 45.5312 76.1634 42.4842 75.5534 39.5242L75.3791 38.9148L75.9891 38.8278C77.5577 38.6536 79.2135 38.5666 80.8692 38.5666C82.4378 38.5666 84.0063 38.6536 85.5749 38.8278L86.2721 38.9148L86.0978 39.5242C85.4007 42.4842 85.1393 45.6183 85.2264 48.6653C85.3135 50.3194 85.4878 52.0605 85.9235 53.7146L86.0106 54.324L85.4006 54.4111C83.9192 54.6723 82.4378 54.8464 80.9563 54.8464C79.3006 54.8464 77.5577 54.6723 75.902 54.324L75.292 54.237L75.6406 53.5405ZM89.4092 52.5829C89.1478 51.19 88.9735 49.797 88.8864 48.4041C88.7121 45.4441 89.0607 42.5712 89.7578 39.6983L89.8449 39.176L90.3678 39.263C94.2021 39.8724 98.1236 40.743 101.871 41.8748L102.568 42.0489L102.219 42.6583C100.302 45.8794 97.6008 48.6653 94.4636 50.7547C93.1564 51.6252 91.7621 52.3217 90.2807 52.9311L89.6707 53.1923L89.4092 52.5829ZM60.3032 41.7877C63.9633 40.743 67.6234 39.8724 71.3705 39.3501L71.8934 39.263L71.9805 39.7854C72.5905 42.5712 72.9391 45.4441 72.7648 48.317C72.6777 49.6229 72.5034 51.0158 72.242 52.3217L72.0676 53.0182L71.4577 52.757C70.1505 52.2346 68.9305 51.5382 67.7977 50.8417C64.5734 48.7523 61.9591 45.9665 59.9547 42.6583L59.6062 42.0489L60.3032 41.7877ZM93.2436 67.9921C92.8078 68.4274 92.3721 68.8627 92.0235 69.385C90.0192 71.7356 88.4507 74.3473 87.405 77.2202L87.2306 77.6555L86.7949 77.5684C86.2721 77.4814 85.662 77.3943 85.052 77.3073C83.7449 77.1331 82.4377 77.0461 81.1306 77.0461C79.7363 77.0461 78.2548 77.1332 76.8605 77.3943C76.1634 77.4814 75.5534 77.6555 74.8563 77.7426L74.3334 77.8296L74.1591 77.3943C73.0262 74.6085 71.5448 71.9097 69.6277 69.6462C69.1919 69.1238 68.7563 68.6015 68.2334 68.0791L67.8848 67.6439L68.2334 67.2086C69.4534 65.9027 70.5862 64.5098 71.6319 62.9427C72.6776 61.3757 73.5491 59.6345 74.1591 57.8934L74.3334 57.4581L74.8563 57.5452C76.8606 57.9805 78.952 58.2416 81.1306 58.2416C83.0477 58.2416 84.8778 58.0675 86.7078 57.7193L87.1435 57.6322L87.3178 58.0675C88.0149 59.8087 88.8863 61.4628 89.9321 63.0298C90.8906 64.5098 92.0236 65.9027 93.2436 67.2086L93.5922 67.6439L93.2436 67.9921Z" fill="#023333"/>
</svg>
